#!OML:ASF H:\Male1\Project 1\Capture day 1\Session 1\Male1.ASF
:FULLY-SPECIFIED
:DEGREES
307
root 9.7369 12.7159 1.2884 36.5675 -261.616 -339.444
lowerback 37.0399 -2.0142 0.196083
upperback 11.7986 -0.792126 0.262181
thorax -5.25596 0.244066 0.398901
lowerneck 3.09955 8.20708 12.1417
upperneck -32.5357 9.03457 -22.7368
head -8.59945 6.3625 -11.1739
rclavicle -7.55382e-015 -6.95746e-015
rhumerus -48.7024 -17.3538 -67.2366
rradius 78.1679
rwrist -39.4398
rhand -41.7256 -5.64774
rfingers 7.12502
rthumb -14.6308 -35.1116
lclavicle -7.55382e-015 -6.95746e-015
lhumerus -51.1107 5.25183 79.0723
lradius 44.4759
lwrist 12.2799
lhand -33.1091 24.2769
lfingers 7.12502
lthumb -6.31949 54.1627
rfemur -64.4688 4.15723 23.8876
rtibia 84.3342
rfoot -31.1362 -19.9842
rtoes -35.7902
lfemur -67.7014 -11.7127 -11.2585
ltibia 85.0531
lfoot -29.684 2.24311
ltoes -19.1632
308
root 9.77994 12.6307 1.33864 31.4401 -260.126 -343.894
lowerback 37.2124 -1.49365 0.418214
upperback 11.4417 -0.0742692 0.329933
thorax -5.71051 0.588003 0.0937189
lowerneck 4.37695 8.50247 12.6188
upperneck -32.7925 9.42336 -23.8575
head -8.71833 6.6955 -11.8251
rclavicle -1.96797e-014 -2.48481e-014
rhumerus -42.1696 -20.1605 -69.9042
rradius 75.6122
rwrist -39.4123
rhand -44.3603 -0.175311
rfingers 7.12502
rthumb -17.168 -29.4369
lclavicle -1.96797e-014 -2.48481e-014
lhumerus -51.1088 5.7924 79.7914
lradius 46.9298
lwrist 16.81
lhand -34.2272 24.118
lfingers 7.12502
lthumb -7.39888 53.9686
rfemur -64.0335 4.56115 23.9406
rtibia 85.6972
rfoot -32.2317 -21.7736
rtoes -34.3291
lfemur -67.7365 -12.7928 -11.0805
ltibia 85.9305
lfoot -29.6907 1.68447
ltoes -20.0437
309
root 9.83266 12.5967 1.38753 26.2071 -258.534 -348.016
lowerback 37.0741 -1.03403 0.811912
upperback 11.6918 0.702966 0.289388
thorax -5.38675 1.00089 -0.433119
lowerneck 7.72746 7.71108 14.3388
upperneck -36.1618 8.18087 -26.8346
head -10.578 6.50035 -14.3956
rclavicle -9.69075e-015 4.03781e-014
rhumerus -33.843 -20.8391 -73.8481
rradius 73.5694
rwrist -37.1009
rhand -44.2825 -0.955555
rfingers 7.12502
rthumb -17.0931 -30.2236
lclavicle -9.69075e-015 4.03781e-014
lhumerus -50.2987 5.74842 81.1997
lradius 49.738
lwrist 21.1444
lhand -36.0097 18.7734
lfingers 7.12502
lthumb -9.11916 48.5562
rfemur -62.7543 4.88948 23.7802
rtibia 86.6133
rfoot -33.0372 -23.15
rtoes -32.4836
lfemur -66.8071 -14.3609 -11.1099
ltibia 86.1425
lfoot -29.6275 1.30436
ltoes -20.3261
310
root 9.8881 12.6035 1.43167 22.0135 -256.866 -351.158
lowerback 36.4388 -0.465421 1.80954
upperback 11.8662 1.77775 0.178936
thorax -4.94447 1.56674 -1.4393
lowerneck 9.50607 7.32939 15.0505
upperneck -37.8845 7.52939 -29.2402
head -11.6153 6.58517 -16.3622
rclavicle 1.23246e-014 -6.16232e-015
rhumerus -25.6024 -19.5043 -77.7759
rradius 72.2516
rwrist -34.3673
rhand -41.295 -4.82586
rfingers 7.12502
rthumb -14.2159 -34.3194
lclavicle 1.23246e-014 -6.16232e-015
lhumerus -50.0029 4.32106 82.9354
lradius 51.0646
lwrist 19.6704
lhand -39.1042 14.6684
lfingers 7.12502
lthumb -12.1042 44.2983
rfemur -61.343 5.07596 23.5648
rtibia 87.1049
rfoot -33.1719 -24.311
rtoes -31.2745
lfemur -65.588 -15.944 -11.3393
ltibia 85.774
lfoot -29.5637 0.841622
ltoes -18.9102
311
root 9.94723 12.6491 1.47622 18.8289 -255.033 -353.494
lowerback 35.4076 0.0884668 2.54118
upperback 11.0721 2.54825 0.0598648
thorax -5.53164 1.88824 -2.23126
lowerneck 18.4755 7.66046 12.706
upperneck -43.2651 8.52707 -29.6834
head -16.6898 7.31959 -19.8758
rclavicle 6.36111e-015 -3.22031e-014
rhumerus -19.4233 -14.1165 -81.1046
rradius 71.5282
rwrist -31.8795
rhand -39.0952 -3.11731
rfingers 7.12502
rthumb -12.0954 -32.7477
lclavicle 6.36111e-015 -3.22031e-014
lhumerus -51.6601 2.81464 83.9454
lradius 50.1985
lwrist 12.5513
lhand -44.0746 14.6012
lfingers 7.12502
lthumb -16.893 43.8865
rfemur -59.8516 4.87206 23.5317
rtibia 87.0011
rfoot -32.8071 -25.5372
rtoes -30.6596
lfemur -64.1887 -17.1408 -11.7902
ltibia 84.7446
lfoot -29.4537 0.0652212
ltoes -16.1548
312
root 10.018 12.7369 1.52045 15.5972 -252.909 -355.761
lowerback 34.5613 0.513374 3.12452
upperback 10.6053 3.17858 -0.116472
thorax -5.67435 2.17503 -2.93427
lowerneck 24.6547 9.26854 9.3217
upperneck -48.2305 11.5205 -29.9109
head -21.9032 8.38665 -24.1188
rclavicle -3.22031e-014 -1.03368e-014
rhumerus -12.3673 -6.79875 -83.668
rradius 71.7584
rwrist -29.1726
rhand -37.0858 -5.01523
rfingers 7.12502
rthumb -10.1574 -34.75
lclavicle -3.22031e-014 -1.03368e-014
lhumerus -52.6373 3.04681 83.4839
lradius 48.0357
lwrist 4.27075
lhand -45.6318 17.5067
lfingers 7.12502
lthumb -18.3915 46.6573
rfemur -57.7398 4.06634 23.5309
rtibia 86.2082
rfoot -32.9411 -26.1737
rtoes -28.3004
lfemur -62.1346 -18.1247 -12.5929
ltibia 83.0117
lfoot -29.2002 -0.945634
ltoes -13.81
